<?xml version="1.0" encoding="utf-8"?>
<!-- Generator: Adobe Illustrator 18.0.0, SVG Export Plug-In . SVG Version: 6.00 Build 0)  -->
<!DOCTYPE svg PUBLIC "-//W3C//DTD SVG 1.1//EN" "http://www.w3.org/Graphics/SVG/1.1/DTD/svg11.dtd">
<svg version="1.1" id="Слой_1" xmlns="http://www.w3.org/2000/svg" xmlns:xlink="http://www.w3.org/1999/xlink" x="0px" y="0px"
	 viewBox="0 0 75 61.4" enable-background="new 0 0 75 61.4" xml:space="preserve">
<g>
	<defs>
		<path id="SVGID_1_" d="M75,46.4c0,8.3-6.8,15-15,15H15c-8.3,0-15-6.8-15-15V15C0,6.8,6.8,0,15,0h45c8.3,0,15,6.8,15,15V46.4z"/>
	</defs>
	<clipPath id="SVGID_2_">
		<use xlink:href="#SVGID_1_"  overflow="visible"/>
	</clipPath>
	<g clip-path="url(#SVGID_2_)">
		<defs>
			<rect id="SVGID_3_" x="0" y="0" width="75" height="61.4"/>
		</defs>
		<clipPath id="SVGID_4_">
			<use xlink:href="#SVGID_3_"  overflow="visible"/>
		</clipPath>
		<rect x="0" y="0" clip-path="url(#SVGID_4_)" fill="#000099" width="75" height="61.4"/>
		<polygon clip-path="url(#SVGID_4_)" fill="#FFFFFF" points="14.5,37.6 16.1,42.6 21,40.7 18.1,45.1 22.6,47.7 17.4,48.2 
			18.1,53.4 14.5,49.6 10.9,53.4 11.6,48.2 6.4,47.7 10.9,45.1 8,40.7 12.9,42.6 		"/>
		<polygon clip-path="url(#SVGID_4_)" fill="#FFFFFF" points="52.8,46.6 53.6,48.9 55.9,48 54.5,50.1 56.7,51.4 54.2,51.6 
			54.5,54.1 52.8,52.3 51.1,54.1 51.5,51.6 49,51.4 51.1,50.1 49.7,48 52.1,48.9 		"/>
		<polygon clip-path="url(#SVGID_4_)" fill="#FFFFFF" points="39,24.6 39.8,27 42.1,26.1 40.7,28.2 42.8,29.5 40.4,29.7 40.7,32.2 
			39,30.4 37.3,32.2 37.6,29.7 35.1,29.5 37.3,28.2 35.9,26.1 38.2,27 		"/>
		<polygon clip-path="url(#SVGID_4_)" fill="#FFFFFF" points="52.8,9.7 53.6,12 55.9,11.1 54.5,13.2 56.7,14.5 54.2,14.7 54.5,17.2 
			52.8,15.4 51.1,17.2 51.5,14.7 49,14.5 51.1,13.2 49.7,11.1 52.1,12 		"/>
		<polygon clip-path="url(#SVGID_4_)" fill="#FFFFFF" points="65.1,21 65.9,23.3 68.2,22.4 66.8,24.5 69,25.8 66.5,26 66.8,28.5 
			65.1,26.7 63.4,28.5 63.8,26 61.3,25.8 63.4,24.5 62,22.4 64.4,23.3 		"/>
		<polygon clip-path="url(#SVGID_4_)" fill="#FFFFFF" points="58.4,32.1 59,33.5 60.6,33.7 59.3,34.7 59.7,36.2 58.4,35.4 57,36.2 
			57.4,34.7 56.2,33.7 57.8,33.5 		"/>
		<polygon clip-path="url(#SVGID_4_)" fill="#FFFFFF" points="13.3,0 13.3,7.5 0,7.5 0,15 13.3,15 13.3,22.5 18.7,22.5 18.7,15 
			32,15 32,7.5 18.7,7.5 18.7,0 		"/>
		<polygon clip-path="url(#SVGID_4_)" fill="#FFFFFF" points="0,0 0,2.5 28.4,22.5 32,22.5 32,20 3.6,0 		"/>
		<polygon clip-path="url(#SVGID_4_)" fill="#FFFFFF" points="28.4,0 0,20 0,22.5 3.6,22.5 32,2.5 32,0 		"/>
		<polygon clip-path="url(#SVGID_4_)" fill="#EA0020" points="14.4,0 14.4,9 0,9 0,13.5 14.4,13.5 14.4,22.5 17.6,22.5 17.6,13.5 
			32,13.5 32,9 17.6,9 17.6,0 		"/>
		<path clip-path="url(#SVGID_4_)" fill="#EA0020" d="M0,0v1.7l8.3,5.8h2.4L0,0z M29.6,0L18.9,7.5h2.4L32,0H29.6z"/>
		<path clip-path="url(#SVGID_4_)" fill="#EA0020" d="M10.7,15L0,22.5h2.4L13,15H10.7z M21.3,15L32,22.5v-1.7L23.7,15H21.3z"/>
	</g>
</g>
</svg>
