<?xml version="1.0" encoding="utf-8"?>
<!-- Generator: Adobe Illustrator 16.0.0, SVG Export Plug-In . SVG Version: 6.00 Build 0)  -->
<!DOCTYPE svg PUBLIC "-//W3C//DTD SVG 1.1//EN" "http://www.w3.org/Graphics/SVG/1.1/DTD/svg11.dtd">
<svg version="1.1" id="Слой_1" xmlns="http://www.w3.org/2000/svg" xmlns:xlink="http://www.w3.org/1999/xlink" x="0px" y="0px"
	 width="24px" height="24px" viewBox="0 0 24 24" enable-background="new 0 0 24 24" xml:space="preserve">
<g id="box">
	<rect fill="none" width="24" height="24"/>
</g>
<g id="flag">
	<g>
		<g>
			<defs>
				<rect id="SVGID_1_" x="1" y="3" width="22" height="18"/>
			</defs>
			<clipPath id="SVGID_2_">
				<use xlink:href="#SVGID_1_"  overflow="visible"/>
			</clipPath>
			<rect x="1" y="3" clip-path="url(#SVGID_2_)" fill="#180087" width="22" height="18"/>
		</g>
		<g>
			<defs>
				<rect id="SVGID_3_" x="1" y="3" width="22" height="18"/>
			</defs>
			<clipPath id="SVGID_4_">
				<use xlink:href="#SVGID_3_"  overflow="visible"/>
			</clipPath>
			<polygon clip-path="url(#SVGID_4_)" fill="#FFFFFF" points="5.262,14.027 5.732,15.488 7.167,14.945 6.317,16.223 7.636,17.005 
				6.108,17.139 6.319,18.656 5.262,17.546 4.206,18.656 4.417,17.139 2.888,17.005 4.207,16.223 3.358,14.945 4.792,15.488 			"/>
		</g>
		<g>
			<defs>
				<rect id="SVGID_5_" x="1" y="3" width="22" height="18"/>
			</defs>
			<clipPath id="SVGID_6_">
				<use xlink:href="#SVGID_5_"  overflow="visible"/>
			</clipPath>
			<polygon clip-path="url(#SVGID_6_)" fill="#FFFFFF" points="16.498,16.656 16.721,17.352 17.402,17.094 17,17.701 17.629,18.072 
				16.9,18.137 17,18.859 16.498,18.33 15.994,18.859 16.094,18.137 15.367,18.072 15.994,17.701 15.59,17.094 16.273,17.352 			"/>
		</g>
		<g>
			<defs>
				<rect id="SVGID_7_" x="1" y="3" width="22" height="18"/>
			</defs>
			<clipPath id="SVGID_8_">
				<use xlink:href="#SVGID_7_"  overflow="visible"/>
			</clipPath>
			<polygon clip-path="url(#SVGID_8_)" fill="#FFFFFF" points="12.439,10.229 12.662,10.925 13.346,10.667 12.941,11.276 
				13.568,11.647 12.842,11.71 12.941,12.433 12.439,11.905 11.936,12.433 12.035,11.71 11.309,11.647 11.936,11.276 11.533,10.667 
				12.215,10.925 			"/>
		</g>
		<g>
			<defs>
				<rect id="SVGID_9_" x="1" y="3" width="22" height="18"/>
			</defs>
			<clipPath id="SVGID_10_">
				<use xlink:href="#SVGID_9_"  overflow="visible"/>
			</clipPath>
			<polygon clip-path="url(#SVGID_10_)" fill="#FFFFFF" points="16.498,5.833 16.721,6.528 17.402,6.27 17,6.878 17.629,7.251 
				16.9,7.314 17,8.037 16.498,7.508 15.994,8.037 16.094,7.314 15.367,7.251 15.994,6.878 15.59,6.27 16.273,6.528 			"/>
		</g>
		<g>
			<defs>
				<rect id="SVGID_11_" x="1" y="3" width="22" height="18"/>
			</defs>
			<clipPath id="SVGID_12_">
				<use xlink:href="#SVGID_11_"  overflow="visible"/>
			</clipPath>
			<polygon clip-path="url(#SVGID_12_)" fill="#FFFFFF" points="20.105,9.148 20.328,9.842 21.012,9.584 20.607,10.193 
				21.236,10.565 20.508,10.628 20.609,11.353 20.105,10.823 19.602,11.353 19.703,10.628 18.975,10.565 19.604,10.193 
				19.197,9.584 19.881,9.842 			"/>
		</g>
		<g>
			<defs>
				<rect id="SVGID_13_" x="1" y="3" width="22" height="18"/>
			</defs>
			<clipPath id="SVGID_14_">
				<use xlink:href="#SVGID_13_"  overflow="visible"/>
			</clipPath>
			<polygon clip-path="url(#SVGID_14_)" fill="#FFFFFF" points="18.121,12.403 18.299,12.837 18.764,12.872 18.406,13.174 
				18.52,13.628 18.121,13.381 17.723,13.628 17.834,13.174 17.477,12.872 17.943,12.837 			"/>
		</g>
		<g>
			<defs>
				<rect id="SVGID_15_" x="1" y="3" width="22" height="18"/>
			</defs>
			<clipPath id="SVGID_16_">
				<use xlink:href="#SVGID_15_"  overflow="visible"/>
			</clipPath>
			<polygon clip-path="url(#SVGID_16_)" fill="#FFFFFF" points="4.908,3 4.908,5.197 1,5.197 1,7.396 4.908,7.396 4.908,9.594 
				6.472,9.594 6.472,7.396 10.381,7.396 10.381,5.197 6.472,5.197 6.472,3 			"/>
		</g>
		<g>
			<defs>
				<rect id="SVGID_17_" x="1" y="3" width="22" height="18"/>
			</defs>
			<clipPath id="SVGID_18_">
				<use xlink:href="#SVGID_17_"  overflow="visible"/>
			</clipPath>
			<polygon clip-path="url(#SVGID_18_)" fill="#FFFFFF" points="1,3 1,3.736 9.331,9.594 10.38,9.594 10.38,8.856 2.049,3 			"/>
		</g>
		<g>
			<defs>
				<rect id="SVGID_19_" x="1" y="3" width="22" height="18"/>
			</defs>
			<clipPath id="SVGID_20_">
				<use xlink:href="#SVGID_19_"  overflow="visible"/>
			</clipPath>
			<polygon clip-path="url(#SVGID_20_)" fill="#FFFFFF" points="9.331,3 1,8.856 1,9.594 2.049,9.594 10.38,3.736 10.38,3 			"/>
		</g>
		<g>
			<defs>
				<rect id="SVGID_21_" x="1" y="3" width="22" height="18"/>
			</defs>
			<clipPath id="SVGID_22_">
				<use xlink:href="#SVGID_21_"  overflow="visible"/>
			</clipPath>
			<polygon clip-path="url(#SVGID_22_)" fill="#EA0020" points="5.221,3 5.221,5.637 1,5.637 1,6.956 5.221,6.956 5.221,9.594 
				6.159,9.594 6.159,6.956 10.38,6.956 10.38,5.637 6.159,5.637 6.159,3 			"/>
		</g>
		<g>
			<defs>
				<rect id="SVGID_23_" x="1" y="3" width="22" height="18"/>
			</defs>
			<clipPath id="SVGID_24_">
				<use xlink:href="#SVGID_23_"  overflow="visible"/>
			</clipPath>
			<path clip-path="url(#SVGID_24_)" fill="#EA0020" d="M1,3v0.492l2.428,1.705h0.699L1,3z M9.681,3L6.555,5.197h0.699L10.38,3
				H9.681z"/>
		</g>
		<g>
			<defs>
				<rect id="SVGID_25_" x="1" y="3" width="22" height="18"/>
			</defs>
			<clipPath id="SVGID_26_">
				<use xlink:href="#SVGID_25_"  overflow="visible"/>
			</clipPath>
			<path clip-path="url(#SVGID_26_)" fill="#EA0020" d="M4.127,7.396L1,9.594h0.699l3.127-2.198H4.127z M7.253,7.396l3.127,2.198
				V9.102L7.954,7.396H7.253z"/>
		</g>
	</g>
	<g>
		<g>
			<g>
				<defs>
					<rect id="SVGID_27_" x="1" y="3" width="22" height="18"/>
				</defs>
				<clipPath id="SVGID_28_">
					<use xlink:href="#SVGID_27_"  overflow="visible"/>
				</clipPath>
				<rect x="-3.428" y="3" clip-path="url(#SVGID_28_)" fill="#C6001E" width="30.854" height="18"/>
			</g>
			<g>
				<defs>
					<rect id="SVGID_29_" x="1" y="3" width="22" height="18"/>
				</defs>
				<clipPath id="SVGID_30_">
					<use xlink:href="#SVGID_29_"  overflow="visible"/>
				</clipPath>
				<polygon clip-path="url(#SVGID_30_)" fill="#FFFFFF" points="6.375,10.313 10.313,10.313 10.313,6.375 13.688,6.375 
					13.688,10.313 17.625,10.313 17.625,13.688 13.688,13.688 13.688,17.625 10.313,17.625 10.313,13.688 6.375,13.688 				"/>
			</g>
		</g>
	</g>
</g>
<g id="contour">
	<g opacity="0.35">
		<path d="M22.5,3.5v17h-21v-17H22.5 M23,3H1v18h22V3L23,3z"/>
	</g>
</g>
</svg>
