<?xml version="1.0" encoding="utf-8"?>
<!-- Generator: Adobe Illustrator 16.0.0, SVG Export Plug-In . SVG Version: 6.00 Build 0)  -->
<!DOCTYPE svg PUBLIC "-//W3C//DTD SVG 1.1//EN" "http://www.w3.org/Graphics/SVG/1.1/DTD/svg11.dtd">
<svg version="1.1" id="Слой_1" xmlns="http://www.w3.org/2000/svg" xmlns:xlink="http://www.w3.org/1999/xlink" x="0px" y="0px"
	 width="24px" height="24px" viewBox="0 0 24 24" enable-background="new 0 0 24 24" xml:space="preserve">
<g id="box">
	<rect fill="none" width="24" height="24"/>
</g>
<g>
	<g>
		<g id="flag">
			<g>
				<defs>
					<rect id="SVGID_1_" x="1" y="3" width="22" height="18"/>
				</defs>
				<clipPath id="SVGID_2_">
					<use xlink:href="#SVGID_1_"  overflow="visible"/>
				</clipPath>
				<rect x="1" y="3" clip-path="url(#SVGID_2_)" fill="#EA0020" width="4.831" height="18"/>
			</g>
			<g>
				<defs>
					<rect id="SVGID_3_" x="1" y="3" width="22" height="18"/>
				</defs>
				<clipPath id="SVGID_4_">
					<use xlink:href="#SVGID_3_"  overflow="visible"/>
				</clipPath>
				<rect x="18.17" y="3" clip-path="url(#SVGID_4_)" fill="#EA0020" width="4.83" height="18"/>
			</g>
			<g>
				<defs>
					<rect id="SVGID_5_" x="1" y="3" width="22" height="18"/>
				</defs>
				<clipPath id="SVGID_6_">
					<use xlink:href="#SVGID_5_"  overflow="visible"/>
				</clipPath>
				<rect x="5.831" y="3" clip-path="url(#SVGID_6_)" fill="#FFFFFF" width="12.339" height="18"/>
			</g>
			<g>
				<defs>
					<rect id="SVGID_7_" x="1" y="3" width="22" height="18"/>
				</defs>
				<clipPath id="SVGID_8_">
					<use xlink:href="#SVGID_7_"  overflow="visible"/>
				</clipPath>
				<g clip-path="url(#SVGID_8_)">
					<g>
						<defs>
							<rect id="SVGID_9_" x="1" y="3" width="22" height="18"/>
						</defs>
						<clipPath id="SVGID_10_">
							<use xlink:href="#SVGID_9_"  overflow="visible"/>
						</clipPath>
						<path clip-path="url(#SVGID_10_)" fill="#EA0020" d="M12,6.929l-0.823,1.598c-0.093,0.174-0.26,0.158-0.428,0.061
							l-0.595-0.322l0.444,2.457c0.093,0.448-0.207,0.448-0.354,0.254l-1.04-1.212L9.036,10.38c-0.02,0.082-0.105,0.167-0.234,0.146
							l-1.314-0.288l0.345,1.308c0.074,0.291,0.132,0.412-0.075,0.488L7.29,12.262l2.263,1.916c0.09,0.073,0.135,0.203,0.104,0.321
							l-0.198,0.676c0.779-0.093,1.478-0.176,2.256-0.271c0.069,0,0.185,0.062,0.184,0.145l-0.103,2.48h0.379l-0.06-2.477
							c0-0.082,0.104-0.148,0.173-0.148c0.779,0.095,1.479,0.178,2.257,0.271l-0.198-0.676c-0.031-0.118,0.014-0.248,0.104-0.321
							l2.263-1.916l-0.469-0.229c-0.207-0.077-0.148-0.197-0.075-0.488l0.347-1.308l-1.314,0.288
							c-0.128,0.021-0.215-0.064-0.232-0.146L14.8,9.764l-1.04,1.212c-0.146,0.194-0.447,0.194-0.354-0.254l0.441-2.457
							l-0.594,0.322c-0.169,0.098-0.336,0.113-0.428-0.061L12,6.929z"/>
					</g>
				</g>
			</g>
		</g>
		<g id="contour">
			<g opacity="0.35">
				<path d="M22.5,3.5v17h-21v-17H22.5 M23,3H1v18h22V3L23,3z"/>
			</g>
		</g>
	</g>
</g>
</svg>
