<?xml version="1.0" encoding="utf-8"?>
<!-- Generator: Adobe Illustrator 16.0.0, SVG Export Plug-In . SVG Version: 6.00 Build 0)  -->
<!DOCTYPE svg PUBLIC "-//W3C//DTD SVG 1.1//EN" "http://www.w3.org/Graphics/SVG/1.1/DTD/svg11.dtd">
<svg version="1.1" id="Слой_1" xmlns="http://www.w3.org/2000/svg" xmlns:xlink="http://www.w3.org/1999/xlink" x="0px" y="0px"
	 width="24px" height="24px" viewBox="0 0 24 24" enable-background="new 0 0 24 24" xml:space="preserve">
<g id="box">
	<rect fill="none" width="24" height="24"/>
</g>
<g id="flag">
	<g>
		<g>
			<g>
				<defs>
					<rect id="SVGID_1_" x="1" y="3" width="22" height="18"/>
				</defs>
				<clipPath id="SVGID_2_">
					<use xlink:href="#SVGID_1_"  overflow="visible"/>
				</clipPath>
				<rect x="0.999" y="3" clip-path="url(#SVGID_2_)" fill="#213095" width="22.001" height="18"/>
			</g>
			<g>
				<defs>
					<rect id="SVGID_3_" x="1" y="3" width="22" height="18"/>
				</defs>
				<clipPath id="SVGID_4_">
					<use xlink:href="#SVGID_3_"  overflow="visible"/>
				</clipPath>
				<polygon clip-path="url(#SVGID_4_)" fill="#F5CB27" points="12,5 11.776,5.691 11.049,5.691 11.636,6.119 11.412,6.81 12,6.382 
					12.587,6.81 12.363,6.119 12.951,5.691 12.224,5.691 				"/>
			</g>
			<g>
				<defs>
					<rect id="SVGID_5_" x="1" y="3" width="22" height="18"/>
				</defs>
				<clipPath id="SVGID_6_">
					<use xlink:href="#SVGID_5_"  overflow="visible"/>
				</clipPath>
				<polygon clip-path="url(#SVGID_6_)" fill="#F5CB27" points="12.224,17.691 12,16.999 11.776,17.691 11.049,17.691 
					11.636,18.119 11.412,18.811 12,18.383 12.587,18.811 12.363,18.119 12.951,17.691 				"/>
			</g>
			<g>
				<defs>
					<rect id="SVGID_7_" x="1" y="3" width="22" height="18"/>
				</defs>
				<clipPath id="SVGID_8_">
					<use xlink:href="#SVGID_7_"  overflow="visible"/>
				</clipPath>
				<polygon clip-path="url(#SVGID_8_)" fill="#F5CB27" points="6,12.383 6.588,12.811 6.364,12.118 6.951,11.691 6.224,11.691 
					6,11 5.775,11.691 5.048,11.691 5.637,12.118 5.413,12.811 				"/>
			</g>
			<g>
				<defs>
					<rect id="SVGID_9_" x="1" y="3" width="22" height="18"/>
				</defs>
				<clipPath id="SVGID_10_">
					<use xlink:href="#SVGID_9_"  overflow="visible"/>
				</clipPath>
				<polygon clip-path="url(#SVGID_10_)" fill="#F5CB27" points="9.001,5.805 8.775,6.496 8.049,6.496 8.637,6.922 8.413,7.613 
					9.001,7.186 9.587,7.613 9.363,6.922 9.952,6.496 9.225,6.496 				"/>
			</g>
			<g>
				<defs>
					<rect id="SVGID_11_" x="1" y="3" width="22" height="18"/>
				</defs>
				<clipPath id="SVGID_12_">
					<use xlink:href="#SVGID_11_"  overflow="visible"/>
				</clipPath>
				<polygon clip-path="url(#SVGID_12_)" fill="#F5CB27" points="6.804,8 6.58,8.692 5.853,8.692 6.441,9.12 6.216,9.81 
					6.804,9.383 7.392,9.81 7.167,9.12 7.754,8.692 7.027,8.692 				"/>
			</g>
			<g>
				<defs>
					<rect id="SVGID_13_" x="1" y="3" width="22" height="18"/>
				</defs>
				<clipPath id="SVGID_14_">
					<use xlink:href="#SVGID_13_"  overflow="visible"/>
				</clipPath>
				<polygon clip-path="url(#SVGID_14_)" fill="#F5CB27" points="7.029,14.691 6.804,14.001 6.58,14.691 5.853,14.691 6.441,15.118 
					6.216,15.809 6.804,15.383 7.392,15.809 7.167,15.118 7.754,14.691 				"/>
			</g>
			<g>
				<defs>
					<rect id="SVGID_15_" x="1" y="3" width="22" height="18"/>
				</defs>
				<clipPath id="SVGID_16_">
					<use xlink:href="#SVGID_15_"  overflow="visible"/>
				</clipPath>
				<polygon clip-path="url(#SVGID_16_)" fill="#F5CB27" points="9.225,16.889 9.001,16.197 8.775,16.889 8.049,16.889 
					8.637,17.314 8.411,18.006 9.001,17.579 9.587,18.006 9.363,17.314 9.952,16.889 				"/>
			</g>
			<g>
				<defs>
					<rect id="SVGID_17_" x="1" y="3" width="22" height="18"/>
				</defs>
				<clipPath id="SVGID_18_">
					<use xlink:href="#SVGID_17_"  overflow="visible"/>
				</clipPath>
				<polygon clip-path="url(#SVGID_18_)" fill="#F5CB27" points="18.951,11.691 18.225,11.691 17.999,11 17.775,11.691 
					17.048,11.691 17.636,12.118 17.411,12.811 17.999,12.383 18.587,12.811 18.363,12.118 				"/>
			</g>
			<g>
				<defs>
					<rect id="SVGID_19_" x="1" y="3" width="22" height="18"/>
				</defs>
				<clipPath id="SVGID_20_">
					<use xlink:href="#SVGID_19_"  overflow="visible"/>
				</clipPath>
				<polygon clip-path="url(#SVGID_20_)" fill="#F5CB27" points="14.999,5.805 14.775,6.496 14.049,6.496 14.637,6.922 
					14.413,7.613 14.999,7.186 15.588,7.613 15.363,6.922 15.95,6.496 15.225,6.496 				"/>
			</g>
			<g>
				<defs>
					<rect id="SVGID_21_" x="1" y="3" width="22" height="18"/>
				</defs>
				<clipPath id="SVGID_22_">
					<use xlink:href="#SVGID_21_"  overflow="visible"/>
				</clipPath>
				<polygon clip-path="url(#SVGID_22_)" fill="#F5CB27" points="16.832,9.12 16.607,9.81 17.195,9.383 17.783,9.81 17.561,9.12 
					18.146,8.692 17.42,8.692 17.195,8 16.973,8.692 16.244,8.692 				"/>
			</g>
			<g>
				<defs>
					<rect id="SVGID_23_" x="1" y="3" width="22" height="18"/>
				</defs>
				<clipPath id="SVGID_24_">
					<use xlink:href="#SVGID_23_"  overflow="visible"/>
				</clipPath>
				<polygon clip-path="url(#SVGID_24_)" fill="#F5CB27" points="17.42,14.691 17.195,14.001 16.973,14.691 16.244,14.691 
					16.832,15.118 16.607,15.809 17.195,15.383 17.783,15.809 17.561,15.118 18.146,14.691 				"/>
			</g>
			<g>
				<defs>
					<rect id="SVGID_25_" x="1" y="3" width="22" height="18"/>
				</defs>
				<clipPath id="SVGID_26_">
					<use xlink:href="#SVGID_25_"  overflow="visible"/>
				</clipPath>
				<polygon clip-path="url(#SVGID_26_)" fill="#F5CB27" points="15.225,16.889 14.999,16.197 14.775,16.889 14.049,16.889 
					14.637,17.314 14.413,18.006 14.999,17.579 15.588,18.006 15.363,17.314 15.95,16.889 				"/>
			</g>
		</g>
	</g>
</g>
<g id="contour">
	<g opacity="0.35">
		<path d="M22.5,3.5v17h-21v-17H22.5 M23,3H1v18h22V3L23,3z"/>
	</g>
</g>
</svg>
