<?xml version="1.0" encoding="utf-8"?>
<!-- Generator: Adobe Illustrator 16.0.0, SVG Export Plug-In . SVG Version: 6.00 Build 0)  -->
<!DOCTYPE svg PUBLIC "-//W3C//DTD SVG 1.1//EN" "http://www.w3.org/Graphics/SVG/1.1/DTD/svg11.dtd">
<svg version="1.1" id="Слой_1" xmlns="http://www.w3.org/2000/svg" xmlns:xlink="http://www.w3.org/1999/xlink" x="0px" y="0px"
	 width="24px" height="24px" viewBox="0 0 24 24" enable-background="new 0 0 24 24" xml:space="preserve">
<g id="box">
	<rect fill="none" width="24" height="24"/>
</g>
<g id="flag">
	<g>
		<g>
			<defs>
				<rect id="SVGID_1_" x="1" y="3" width="22" height="18"/>
			</defs>
			<clipPath id="SVGID_2_">
				<use xlink:href="#SVGID_1_"  overflow="visible"/>
			</clipPath>
			<rect x="1" y="3" clip-path="url(#SVGID_2_)" fill="#FFFFFF" width="22" height="18"/>
		</g>
		<g>
			<defs>
				<rect id="SVGID_3_" x="1" y="3" width="22" height="18"/>
			</defs>
			<clipPath id="SVGID_4_">
				<use xlink:href="#SVGID_3_"  overflow="visible"/>
			</clipPath>
			<polygon clip-path="url(#SVGID_4_)" fill="#BD0034" points="15.73,9.508 23,3.801 23,3 22.499,3 14.21,9.508 			"/>
		</g>
		<g>
			<defs>
				<rect id="SVGID_5_" x="1" y="3" width="22" height="18"/>
			</defs>
			<clipPath id="SVGID_6_">
				<use xlink:href="#SVGID_5_"  overflow="visible"/>
			</clipPath>
			<polygon clip-path="url(#SVGID_6_)" fill="#BD0034" points="15.387,14.854 23,20.828 23,19.634 16.909,14.854 			"/>
		</g>
		<g>
			<defs>
				<rect id="SVGID_7_" x="1" y="3" width="22" height="18"/>
			</defs>
			<clipPath id="SVGID_8_">
				<use xlink:href="#SVGID_7_"  overflow="visible"/>
			</clipPath>
			<polygon clip-path="url(#SVGID_8_)" fill="#BD0034" points="1,4.372 7.512,9.508 9.034,9.508 1,3.175 			"/>
		</g>
		<g>
			<defs>
				<rect id="SVGID_9_" x="1" y="3" width="22" height="18"/>
			</defs>
			<clipPath id="SVGID_10_">
				<use xlink:href="#SVGID_9_"  overflow="visible"/>
			</clipPath>
			<polygon clip-path="url(#SVGID_10_)" fill="#BD0034" points="8.69,14.854 1,20.896 1,21 2.389,21 10.211,14.854 			"/>
		</g>
		<g>
			<defs>
				<rect id="SVGID_11_" x="1" y="3" width="22" height="18"/>
			</defs>
			<clipPath id="SVGID_12_">
				<use xlink:href="#SVGID_11_"  overflow="visible"/>
			</clipPath>
			<polygon clip-path="url(#SVGID_12_)" fill="#1A237B" points="21.496,3 13.793,3 13.793,9.052 			"/>
		</g>
		<g>
			<defs>
				<rect id="SVGID_13_" x="1" y="3" width="22" height="18"/>
			</defs>
			<clipPath id="SVGID_14_">
				<use xlink:href="#SVGID_13_"  overflow="visible"/>
			</clipPath>
			<polygon clip-path="url(#SVGID_14_)" fill="#1A237B" points="10.391,3 2.719,3 10.391,9.052 			"/>
		</g>
		<g>
			<defs>
				<rect id="SVGID_15_" x="1" y="3" width="22" height="18"/>
			</defs>
			<clipPath id="SVGID_16_">
				<use xlink:href="#SVGID_15_"  overflow="visible"/>
			</clipPath>
			<polygon clip-path="url(#SVGID_16_)" fill="#1A237B" points="23,9.508 23,5.379 17.775,9.508 			"/>
		</g>
		<g>
			<defs>
				<rect id="SVGID_17_" x="1" y="3" width="22" height="18"/>
			</defs>
			<clipPath id="SVGID_18_">
				<use xlink:href="#SVGID_17_"  overflow="visible"/>
			</clipPath>
			<polygon clip-path="url(#SVGID_18_)" fill="#1A237B" points="23,18.938 23,14.854 17.775,14.854 			"/>
		</g>
		<g>
			<defs>
				<rect id="SVGID_19_" x="1" y="3" width="22" height="18"/>
			</defs>
			<clipPath id="SVGID_20_">
				<use xlink:href="#SVGID_19_"  overflow="visible"/>
			</clipPath>
			<polygon clip-path="url(#SVGID_20_)" fill="#1A237B" points="3.154,21 10.391,21 10.391,15.313 			"/>
		</g>
		<g>
			<defs>
				<rect id="SVGID_21_" x="1" y="3" width="22" height="18"/>
			</defs>
			<clipPath id="SVGID_22_">
				<use xlink:href="#SVGID_21_"  overflow="visible"/>
			</clipPath>
			<polygon clip-path="url(#SVGID_22_)" fill="#1A237B" points="13.793,21 21.051,21 13.793,15.313 			"/>
		</g>
		<g>
			<defs>
				<rect id="SVGID_23_" x="1" y="3" width="22" height="18"/>
			</defs>
			<clipPath id="SVGID_24_">
				<use xlink:href="#SVGID_23_"  overflow="visible"/>
			</clipPath>
			<polygon clip-path="url(#SVGID_24_)" fill="#1A237B" points="1,14.854 1,19.122 6.407,14.854 			"/>
		</g>
		<g>
			<defs>
				<rect id="SVGID_25_" x="1" y="3" width="22" height="18"/>
			</defs>
			<clipPath id="SVGID_26_">
				<use xlink:href="#SVGID_25_"  overflow="visible"/>
			</clipPath>
			<polygon clip-path="url(#SVGID_26_)" fill="#1A237B" points="1,9.508 6.407,9.508 1,5.233 			"/>
		</g>
		<g>
			<defs>
				<rect id="SVGID_27_" x="1" y="3" width="22" height="18"/>
			</defs>
			<clipPath id="SVGID_28_">
				<use xlink:href="#SVGID_27_"  overflow="visible"/>
			</clipPath>
			<polygon clip-path="url(#SVGID_28_)" fill="#BD0034" points="11.071,3 11.071,10.578 1,10.578 1,13.785 11.071,13.785 11.071,21 
				13.111,21 13.111,13.785 23,13.785 23,10.578 13.111,10.578 13.111,3 			"/>
		</g>
	</g>
</g>
<g id="contour">
	<g opacity="0.35">
		<path d="M22.5,3.5v17h-21v-17H22.5 M23,3H1v18h22V3L23,3z"/>
	</g>
</g>
</svg>
