<?xml version="1.0" encoding="utf-8"?>
<!-- Generator: Adobe Illustrator 16.0.0, SVG Export Plug-In . SVG Version: 6.00 Build 0)  -->
<!DOCTYPE svg PUBLIC "-//W3C//DTD SVG 1.1//EN" "http://www.w3.org/Graphics/SVG/1.1/DTD/svg11.dtd">
<svg version="1.1" id="Слой_1" xmlns="http://www.w3.org/2000/svg" xmlns:xlink="http://www.w3.org/1999/xlink" x="0px" y="0px"
	 width="24px" height="24px" viewBox="0 0 24 24" enable-background="new 0 0 24 24" xml:space="preserve">
<g id="box">
	<rect fill="none" width="24" height="24"/>
</g>
<g>
	<g>
		<g id="flag">
			<g>
				<defs>
					<rect id="SVGID_1_" x="1" y="3" width="21.984" height="18"/>
				</defs>
				<clipPath id="SVGID_2_">
					<use xlink:href="#SVGID_1_"  overflow="visible"/>
				</clipPath>
				<rect x="-3.429" y="3" clip-path="url(#SVGID_2_)" fill="#CB1D23" width="30.857" height="18"/>
			</g>
			<g>
				<defs>
					<rect id="SVGID_3_" x="1" y="3" width="21.984" height="18"/>
				</defs>
				<clipPath id="SVGID_4_">
					<use xlink:href="#SVGID_3_"  overflow="visible"/>
				</clipPath>
				<g clip-path="url(#SVGID_4_)">
					<g>
						<defs>
							<rect id="SVGID_5_" x="-3.429" y="3" width="30.857" height="18"/>
						</defs>
						<defs>
							<rect id="SVGID_6_" x="-3.429" y="3" width="30.857" height="18"/>
						</defs>
						<defs>
							<rect id="SVGID_7_" x="-3.429" y="3" width="30.857" height="18"/>
						</defs>
						<defs>
							<rect id="SVGID_8_" x="-3.429" y="3" width="30.857" height="18"/>
						</defs>
						<defs>
							<rect id="SVGID_9_" x="-3.429" y="3" width="30.857" height="18"/>
						</defs>
						<defs>
							<rect id="SVGID_10_" x="-3.429" y="3" width="30.857" height="18"/>
						</defs>
						<defs>
							<rect id="SVGID_11_" x="-3.429" y="3" width="30.857" height="18"/>
						</defs>
						<defs>
							<rect id="SVGID_12_" x="-3.429" y="3" width="30.857" height="18"/>
						</defs>
						<defs>
							<rect id="SVGID_13_" x="-3.429" y="3" width="30.857" height="18"/>
						</defs>
						<defs>
							<rect id="SVGID_14_" x="-3.429" y="3" width="30.857" height="18"/>
						</defs>
						<defs>
							<rect id="SVGID_15_" x="-3.429" y="3" width="30.857" height="18"/>
						</defs>
						<defs>
							<rect id="SVGID_16_" x="-3.429" y="3" width="30.857" height="18"/>
						</defs>
						<defs>
							<rect id="SVGID_17_" x="-3.429" y="3" width="30.857" height="18"/>
						</defs>
						<defs>
							<rect id="SVGID_18_" x="-3.429" y="3" width="30.857" height="18"/>
						</defs>
						<defs>
							<rect id="SVGID_19_" x="-3.429" y="3" width="30.857" height="18"/>
						</defs>
						<defs>
							<rect id="SVGID_20_" x="-3.429" y="3" width="30.857" height="18"/>
						</defs>
						<clipPath id="SVGID_21_">
							<use xlink:href="#SVGID_5_"  overflow="visible"/>
						</clipPath>
						<clipPath id="SVGID_22_" clip-path="url(#SVGID_21_)">
							<use xlink:href="#SVGID_6_"  overflow="visible"/>
						</clipPath>
						<clipPath id="SVGID_23_" clip-path="url(#SVGID_22_)">
							<use xlink:href="#SVGID_7_"  overflow="visible"/>
						</clipPath>
						<clipPath id="SVGID_24_" clip-path="url(#SVGID_23_)">
							<use xlink:href="#SVGID_8_"  overflow="visible"/>
						</clipPath>
						<clipPath id="SVGID_25_" clip-path="url(#SVGID_24_)">
							<use xlink:href="#SVGID_9_"  overflow="visible"/>
						</clipPath>
						<clipPath id="SVGID_26_" clip-path="url(#SVGID_25_)">
							<use xlink:href="#SVGID_10_"  overflow="visible"/>
						</clipPath>
						<clipPath id="SVGID_27_" clip-path="url(#SVGID_26_)">
							<use xlink:href="#SVGID_11_"  overflow="visible"/>
						</clipPath>
						<clipPath id="SVGID_28_" clip-path="url(#SVGID_27_)">
							<use xlink:href="#SVGID_12_"  overflow="visible"/>
						</clipPath>
						<clipPath id="SVGID_29_" clip-path="url(#SVGID_28_)">
							<use xlink:href="#SVGID_13_"  overflow="visible"/>
						</clipPath>
						<clipPath id="SVGID_30_" clip-path="url(#SVGID_29_)">
							<use xlink:href="#SVGID_14_"  overflow="visible"/>
						</clipPath>
						<clipPath id="SVGID_31_" clip-path="url(#SVGID_30_)">
							<use xlink:href="#SVGID_15_"  overflow="visible"/>
						</clipPath>
						<clipPath id="SVGID_32_" clip-path="url(#SVGID_31_)">
							<use xlink:href="#SVGID_16_"  overflow="visible"/>
						</clipPath>
						<clipPath id="SVGID_33_" clip-path="url(#SVGID_32_)">
							<use xlink:href="#SVGID_17_"  overflow="visible"/>
						</clipPath>
						<clipPath id="SVGID_34_" clip-path="url(#SVGID_33_)">
							<use xlink:href="#SVGID_18_"  overflow="visible"/>
						</clipPath>
						<clipPath id="SVGID_35_" clip-path="url(#SVGID_34_)">
							<use xlink:href="#SVGID_19_"  overflow="visible"/>
						</clipPath>
						<clipPath id="SVGID_36_" clip-path="url(#SVGID_35_)">
							<use xlink:href="#SVGID_20_"  overflow="visible"/>
						</clipPath>
						<path clip-path="url(#SVGID_36_)" fill="#FFFFFF" d="M12,12.001c-1.397-0.565-2.074-2.155-1.51-3.554
							c0.449-1.112,1.573-1.802,2.769-1.699c-0.442,0.22-0.729,0.751-0.366,1.301c0.398,0.603,0.176,1.62-0.601,1.985
							C11.688,10.317,11.194,11.263,12,12.001"/>
						<polygon clip-path="url(#SVGID_36_)" fill="#CB1D23" points="11.754,9.154 12.096,8.369 11.358,8.805 12.21,8.886 
							11.569,8.319 						"/>
						<path clip-path="url(#SVGID_36_)" fill="#CB1D23" d="M12.013,11.96c-1.021-0.617-1.07-2.006-0.552-2.776l-0.066-0.042
							c-0.498,0.71-0.549,2.213,0.583,2.888L12.013,11.96z"/>
						<path clip-path="url(#SVGID_36_)" fill="#FFFFFF" d="M12,12.001c0.104-1.504,1.409-2.639,2.913-2.534
							c1.196,0.083,2.2,0.939,2.471,2.108c-0.345-0.354-0.938-0.465-1.35,0.052c-0.45,0.566-1.486,0.669-2.073,0.043
							C13.504,11.184,12.453,11.007,12,12.001"/>
						<polygon clip-path="url(#SVGID_36_)" fill="#CB1D23" points="14.631,10.888 15.482,10.97 14.842,10.402 15.027,11.237 
							15.369,10.453 						"/>
						<path clip-path="url(#SVGID_36_)" fill="#CB1D23" d="M12.043,12.001c0.271-1.164,1.577-1.639,2.471-1.385l0.02-0.075
							c-0.83-0.255-2.273,0.161-2.566,1.446L12.043,12.001z"/>
						<path clip-path="url(#SVGID_36_)" fill="#FFFFFF" d="M12,12.001c-0.969,1.153-2.69,1.306-3.846,0.337
							c-0.92-0.771-1.229-2.053-0.76-3.157c0.07,0.488,0.487,0.927,1.122,0.751c0.696-0.193,1.597,0.332,1.703,1.184
							C10.303,11.778,11.05,12.538,12,12.001"/>
						<polygon clip-path="url(#SVGID_36_)" fill="#CB1D23" points="9.218,11.354 8.576,10.787 8.762,11.623 9.103,10.839 
							8.365,11.273 						"/>
						<path clip-path="url(#SVGID_36_)" fill="#CB1D23" d="M11.966,11.975c-0.903,0.783-2.239,0.4-2.812-0.331l-0.061,0.05
							c0.521,0.693,1.935,1.205,2.927,0.339L11.966,11.975z"/>
						<path clip-path="url(#SVGID_36_)" fill="#FFFFFF" d="M12,12.001c1.463-0.365,2.945,0.524,3.311,1.985
							c0.291,1.166-0.213,2.384-1.242,3.002c0.23-0.436,0.151-1.036-0.465-1.266c-0.68-0.254-1.097-1.209-0.684-1.959
							C13.242,13.178,13.086,12.124,12,12.001"/>
						<polygon clip-path="url(#SVGID_36_)" fill="#CB1D23" points="13.872,14.158 14.059,14.994 14.398,14.209 13.66,14.645 
							14.514,14.727 						"/>
						<path clip-path="url(#SVGID_36_)" fill="#CB1D23" d="M12.014,12.041c1.189-0.101,2.046,0.993,2.078,1.921l0.079-0.005
							c-0.015-0.867-0.856-2.112-2.169-1.993L12.014,12.041z"/>
						<path clip-path="url(#SVGID_36_)" fill="#FFFFFF" d="M12,12.001c0.8,1.278,0.411,2.963-0.867,3.763
							c-1.018,0.637-2.332,0.532-3.237-0.255c0.485,0.085,1.031-0.176,1.06-0.835c0.031-0.722,0.811-1.414,1.652-1.254
							C11.265,13.546,12.219,13.07,12,12.001"/>
						<polygon clip-path="url(#SVGID_36_)" fill="#CB1D23" points="10.526,14.447 9.789,14.882 10.641,14.964 10,14.396 
							10.185,15.23 						"/>
						<path clip-path="url(#SVGID_36_)" fill="#CB1D23" d="M11.966,12.026c0.465,1.1-0.313,2.251-1.185,2.57l0.029,0.073
							c0.82-0.282,1.743-1.468,1.226-2.679L11.966,12.026z"/>
						<path clip-path="url(#SVGID_36_)" fill="#CB1D23" d="M12,11.881c0.066,0,0.12,0.053,0.12,0.12c0,0.066-0.054,0.12-0.12,0.12
							c-0.065,0-0.12-0.054-0.12-0.12C11.88,11.934,11.935,11.881,12,11.881"/>
					</g>
				</g>
			</g>
		</g>
		<g id="contour">
			<g opacity="0.35">
				<path d="M22.5,3.5v17h-21v-17H22.5 M23,3H1v18h22V3L23,3z"/>
			</g>
		</g>
	</g>
</g>
</svg>
