<?xml version="1.0" encoding="utf-8"?>
<!-- Generator: Adobe Illustrator 16.0.0, SVG Export Plug-In . SVG Version: 6.00 Build 0)  -->
<!DOCTYPE svg PUBLIC "-//W3C//DTD SVG 1.1//EN" "http://www.w3.org/Graphics/SVG/1.1/DTD/svg11.dtd">
<svg version="1.1" id="RAW_ICONS_-_SQUARE__x2F__ROUNDED__x2F__CIRCLE"
	 xmlns="http://www.w3.org/2000/svg" xmlns:xlink="http://www.w3.org/1999/xlink" x="0px" y="0px" width="32px" height="32px"
	 viewBox="0 0 32 32" enable-background="new 0 0 32 32" xml:space="preserve">
<g>
	<path fill="#066C9A" d="M0-0.001v32h32v-32H0z"/>
</g>
<path fill="#FFFFFF" d="M17.199,14.528v-0.041c-0.008,0.015-0.019,0.029-0.028,0.041H17.199z"/>
<rect x="6.253" y="12.661" fill="#FFFFFF" width="4.288" height="12.896"/>
<path fill="#FFFFFF" d="M8.396,10.901H8.368C6.931,10.901,6,9.907,6,8.672C6,7.405,6.96,6.44,8.425,6.44
	c1.467,0,2.37,0.965,2.397,2.231C10.822,9.907,9.892,10.901,8.396,10.901z"/>
<path fill="#FFFFFF" d="M26,25.557h-4.287v-6.899c0-1.733-0.62-2.918-2.173-2.918c-1.183,0-1.89,0.801-2.199,1.57
	c-0.114,0.275-0.142,0.659-0.142,1.045v7.202h-4.286c0,0,0.055-11.687,0-12.896h4.286v1.826c0.571-0.879,1.589-2.129,3.864-2.129
	c2.82,0,4.937,1.844,4.937,5.806V25.557z"/>
</svg>
