<?xml version="1.0" encoding="utf-8"?>
<!-- Generator: Adobe Illustrator 16.0.0, SVG Export Plug-In . SVG Version: 6.00 Build 0)  -->
<!DOCTYPE svg PUBLIC "-//W3C//DTD SVG 1.1//EN" "http://www.w3.org/Graphics/SVG/1.1/DTD/svg11.dtd">
<svg version="1.1" id="RAW_ICONS_-_SQUARE__x2F__ROUNDED__x2F__CIRCLE"
	 xmlns="http://www.w3.org/2000/svg" xmlns:xlink="http://www.w3.org/1999/xlink" x="0px" y="0px" width="32px" height="32px"
	 viewBox="0 0 32 32" enable-background="new 0 0 32 32" xml:space="preserve">
<path fill="#2AA9E0" d="M0-0.001v32h32v-32H0z"/>
<path fill="#FFFFFF" d="M23.953,11.921c0.009,0.176,0.012,0.352,0.012,0.53c0,5.423-4.127,11.675-11.674,11.675
	c-2.318,0-4.475-0.679-6.291-1.844c0.322,0.039,0.648,0.057,0.979,0.057c1.924,0,3.691-0.654,5.095-1.756
	c-1.794-0.031-3.311-1.218-3.832-2.849c0.251,0.049,0.507,0.073,0.771,0.073c0.375,0,0.738-0.049,1.081-0.145
	c-1.875-0.375-3.291-2.035-3.291-4.023c0-0.017,0-0.033,0-0.051c0.554,0.308,1.187,0.493,1.858,0.513
	c-1.101-0.735-1.824-1.992-1.824-3.415c0-0.752,0.202-1.455,0.555-2.063c2.023,2.483,5.048,4.116,8.457,4.287
	c-0.069-0.3-0.105-0.612-0.105-0.935c0-2.266,1.837-4.102,4.104-4.102c1.18,0,2.246,0.498,2.994,1.293
	c0.935-0.183,1.813-0.524,2.606-0.993c-0.308,0.957-0.957,1.763-1.804,2.269c0.83-0.098,1.621-0.318,2.355-0.645
	C25.451,10.62,24.755,11.343,23.953,11.921z"/>
</svg>
