<?xml version="1.0" encoding="utf-8"?>
<!-- Generator: Adobe Illustrator 16.0.0, SVG Export Plug-In . SVG Version: 6.00 Build 0)  -->
<!DOCTYPE svg PUBLIC "-//W3C//DTD SVG 1.1//EN" "http://www.w3.org/Graphics/SVG/1.1/DTD/svg11.dtd">
<svg version="1.1" id="Слой_1" xmlns="http://www.w3.org/2000/svg" xmlns:xlink="http://www.w3.org/1999/xlink" x="0px" y="0px"
	 width="24px" height="24px" viewBox="0 0 24 24" enable-background="new 0 0 24 24" xml:space="preserve">
<g id="box">
	<rect fill="none" width="24" height="24"/>
</g>
<g id="flag">
	<g>
		<g>
			<g>
				<defs>
					<rect id="SVGID_1_" x="1" y="3" width="22" height="18"/>
				</defs>
				<clipPath id="SVGID_2_">
					<use xlink:href="#SVGID_1_"  overflow="visible"/>
				</clipPath>
				<rect x="1" y="19.615" clip-path="url(#SVGID_2_)" fill="#CB001C" width="22" height="1.385"/>
			</g>
			<g>
				<defs>
					<rect id="SVGID_3_" x="1" y="3" width="22" height="18"/>
				</defs>
				<clipPath id="SVGID_4_">
					<use xlink:href="#SVGID_3_"  overflow="visible"/>
				</clipPath>
				<rect x="1" y="18.23" clip-path="url(#SVGID_4_)" fill="#FFFFFF" width="22" height="1.385"/>
			</g>
			<g>
				<defs>
					<rect id="SVGID_5_" x="1" y="3" width="22" height="18"/>
				</defs>
				<clipPath id="SVGID_6_">
					<use xlink:href="#SVGID_5_"  overflow="visible"/>
				</clipPath>
				<rect x="1" y="16.848" clip-path="url(#SVGID_6_)" fill="#CB001C" width="22" height="1.383"/>
			</g>
			<g>
				<defs>
					<rect id="SVGID_7_" x="1" y="3" width="22" height="18"/>
				</defs>
				<clipPath id="SVGID_8_">
					<use xlink:href="#SVGID_7_"  overflow="visible"/>
				</clipPath>
				<rect x="1" y="15.461" clip-path="url(#SVGID_8_)" fill="#FFFFFF" width="22" height="1.387"/>
			</g>
			<g>
				<defs>
					<rect id="SVGID_9_" x="1" y="3" width="22" height="18"/>
				</defs>
				<clipPath id="SVGID_10_">
					<use xlink:href="#SVGID_9_"  overflow="visible"/>
				</clipPath>
				<rect x="1" y="14.076" clip-path="url(#SVGID_10_)" fill="#CB001C" width="22" height="1.385"/>
			</g>
			<g>
				<defs>
					<rect id="SVGID_11_" x="1" y="3" width="22" height="18"/>
				</defs>
				<clipPath id="SVGID_12_">
					<use xlink:href="#SVGID_11_"  overflow="visible"/>
				</clipPath>
				<rect x="1" y="12.693" clip-path="url(#SVGID_12_)" fill="#FFFFFF" width="22" height="1.383"/>
			</g>
			<g>
				<defs>
					<rect id="SVGID_13_" x="1" y="3" width="22" height="18"/>
				</defs>
				<clipPath id="SVGID_14_">
					<use xlink:href="#SVGID_13_"  overflow="visible"/>
				</clipPath>
				<rect x="1" y="11.309" clip-path="url(#SVGID_14_)" fill="#CB001C" width="22" height="1.384"/>
			</g>
			<g>
				<defs>
					<rect id="SVGID_15_" x="1" y="3" width="22" height="18"/>
				</defs>
				<clipPath id="SVGID_16_">
					<use xlink:href="#SVGID_15_"  overflow="visible"/>
				</clipPath>
				<rect x="1" y="9.924" clip-path="url(#SVGID_16_)" fill="#FFFFFF" width="22" height="1.383"/>
			</g>
			<g>
				<defs>
					<rect id="SVGID_17_" x="1" y="3" width="22" height="18"/>
				</defs>
				<clipPath id="SVGID_18_">
					<use xlink:href="#SVGID_17_"  overflow="visible"/>
				</clipPath>
				<rect x="1" y="8.539" clip-path="url(#SVGID_18_)" fill="#CB001C" width="22" height="1.385"/>
			</g>
			<g>
				<defs>
					<rect id="SVGID_19_" x="1" y="3" width="22" height="18"/>
				</defs>
				<clipPath id="SVGID_20_">
					<use xlink:href="#SVGID_19_"  overflow="visible"/>
				</clipPath>
				<rect x="1" y="7.153" clip-path="url(#SVGID_20_)" fill="#FFFFFF" width="22" height="1.386"/>
			</g>
			<g>
				<defs>
					<rect id="SVGID_21_" x="1" y="3" width="22" height="18"/>
				</defs>
				<clipPath id="SVGID_22_">
					<use xlink:href="#SVGID_21_"  overflow="visible"/>
				</clipPath>
				<rect x="1" y="5.769" clip-path="url(#SVGID_22_)" fill="#CB001C" width="22" height="1.385"/>
			</g>
			<g>
				<defs>
					<rect id="SVGID_23_" x="1" y="3" width="22" height="18"/>
				</defs>
				<clipPath id="SVGID_24_">
					<use xlink:href="#SVGID_23_"  overflow="visible"/>
				</clipPath>
				<rect x="1" y="4.385" clip-path="url(#SVGID_24_)" fill="#FFFFFF" width="22" height="1.384"/>
			</g>
			<g>
				<defs>
					<rect id="SVGID_25_" x="1" y="3" width="22" height="18"/>
				</defs>
				<clipPath id="SVGID_26_">
					<use xlink:href="#SVGID_25_"  overflow="visible"/>
				</clipPath>
				<rect x="1" y="3" clip-path="url(#SVGID_26_)" fill="#CB001C" width="22" height="1.385"/>
			</g>
			<g>
				<defs>
					<rect id="SVGID_27_" x="1" y="3" width="22" height="18"/>
				</defs>
				<clipPath id="SVGID_28_">
					<use xlink:href="#SVGID_27_"  overflow="visible"/>
				</clipPath>
				<rect x="1" y="3" clip-path="url(#SVGID_28_)" fill="#2A3560" width="14.182" height="9.693"/>
			</g>
			<g>
				<defs>
					<rect id="SVGID_29_" x="1" y="3" width="22" height="18"/>
				</defs>
				<clipPath id="SVGID_30_">
					<use xlink:href="#SVGID_29_"  overflow="visible"/>
				</clipPath>
				<polygon clip-path="url(#SVGID_30_)" fill="#FFFFFF" points="2.279,4.068 2.399,4.436 2.786,4.436 2.473,4.661 2.592,5.027 
					2.279,4.801 1.965,5.027 2.084,4.661 1.771,4.436 2.159,4.436 				"/>
			</g>
			<g>
				<defs>
					<rect id="SVGID_31_" x="1" y="3" width="22" height="18"/>
				</defs>
				<clipPath id="SVGID_32_">
					<use xlink:href="#SVGID_31_"  overflow="visible"/>
				</clipPath>
				<polygon clip-path="url(#SVGID_32_)" fill="#FFFFFF" points="2.279,5.686 2.399,6.052 2.786,6.052 2.473,6.277 2.592,6.645 
					2.279,6.418 1.965,6.645 2.084,6.277 1.771,6.052 2.159,6.052 				"/>
			</g>
			<g>
				<defs>
					<rect id="SVGID_33_" x="1" y="3" width="22" height="18"/>
				</defs>
				<clipPath id="SVGID_34_">
					<use xlink:href="#SVGID_33_"  overflow="visible"/>
				</clipPath>
				<polygon clip-path="url(#SVGID_34_)" fill="#FFFFFF" points="2.279,7.304 2.399,7.67 2.786,7.67 2.473,7.896 2.592,8.264 
					2.279,8.036 1.965,8.264 2.084,7.896 1.771,7.67 2.159,7.67 				"/>
			</g>
			<g>
				<defs>
					<rect id="SVGID_35_" x="1" y="3" width="22" height="18"/>
				</defs>
				<clipPath id="SVGID_36_">
					<use xlink:href="#SVGID_35_"  overflow="visible"/>
				</clipPath>
				<polygon clip-path="url(#SVGID_36_)" fill="#FFFFFF" points="2.279,8.922 2.399,9.288 2.786,9.288 2.473,9.516 2.592,9.881 
					2.279,9.654 1.965,9.881 2.084,9.516 1.771,9.288 2.159,9.288 				"/>
			</g>
			<g>
				<defs>
					<rect id="SVGID_37_" x="1" y="3" width="22" height="18"/>
				</defs>
				<clipPath id="SVGID_38_">
					<use xlink:href="#SVGID_37_"  overflow="visible"/>
				</clipPath>
				<polygon clip-path="url(#SVGID_38_)" fill="#FFFFFF" points="2.279,10.54 2.399,10.906 2.786,10.906 2.473,11.133 2.592,11.498 
					2.279,11.272 1.965,11.498 2.084,11.133 1.771,10.906 2.159,10.906 				"/>
			</g>
			<g>
				<defs>
					<rect id="SVGID_39_" x="1" y="3" width="22" height="18"/>
				</defs>
				<clipPath id="SVGID_40_">
					<use xlink:href="#SVGID_39_"  overflow="visible"/>
				</clipPath>
				<polygon clip-path="url(#SVGID_40_)" fill="#FFFFFF" points="3.413,4.921 3.533,5.287 3.92,5.287 3.607,5.514 3.727,5.879 
					3.413,5.653 3.099,5.879 3.219,5.514 2.905,5.287 3.293,5.287 				"/>
			</g>
			<g>
				<defs>
					<rect id="SVGID_41_" x="1" y="3" width="22" height="18"/>
				</defs>
				<clipPath id="SVGID_42_">
					<use xlink:href="#SVGID_41_"  overflow="visible"/>
				</clipPath>
				<polygon clip-path="url(#SVGID_42_)" fill="#FFFFFF" points="3.413,6.539 3.533,6.904 3.92,6.904 3.607,7.131 3.727,7.497 
					3.413,7.271 3.099,7.497 3.219,7.131 2.905,6.904 3.293,6.904 				"/>
			</g>
			<g>
				<defs>
					<rect id="SVGID_43_" x="1" y="3" width="22" height="18"/>
				</defs>
				<clipPath id="SVGID_44_">
					<use xlink:href="#SVGID_43_"  overflow="visible"/>
				</clipPath>
				<polygon clip-path="url(#SVGID_44_)" fill="#FFFFFF" points="3.413,8.156 3.533,8.521 3.92,8.521 3.607,8.749 3.727,9.115 
					3.413,8.889 3.099,9.115 3.219,8.749 2.905,8.521 3.293,8.521 				"/>
			</g>
			<g>
				<defs>
					<rect id="SVGID_45_" x="1" y="3" width="22" height="18"/>
				</defs>
				<clipPath id="SVGID_46_">
					<use xlink:href="#SVGID_45_"  overflow="visible"/>
				</clipPath>
				<polygon clip-path="url(#SVGID_46_)" fill="#FFFFFF" points="3.413,9.773 3.533,10.141 3.92,10.141 3.607,10.367 3.727,10.732 
					3.413,10.506 3.099,10.732 3.219,10.367 2.905,10.141 3.293,10.141 				"/>
			</g>
			<g>
				<defs>
					<rect id="SVGID_47_" x="1" y="3" width="22" height="18"/>
				</defs>
				<clipPath id="SVGID_48_">
					<use xlink:href="#SVGID_47_"  overflow="visible"/>
				</clipPath>
				<polygon clip-path="url(#SVGID_48_)" fill="#FFFFFF" points="4.561,4.068 4.682,4.436 5.069,4.436 4.755,4.661 4.875,5.027 
					4.561,4.801 4.248,5.027 4.368,4.661 4.054,4.436 4.442,4.436 				"/>
			</g>
			<g>
				<defs>
					<rect id="SVGID_49_" x="1" y="3" width="22" height="18"/>
				</defs>
				<clipPath id="SVGID_50_">
					<use xlink:href="#SVGID_49_"  overflow="visible"/>
				</clipPath>
				<polygon clip-path="url(#SVGID_50_)" fill="#FFFFFF" points="4.561,5.686 4.682,6.052 5.069,6.052 4.755,6.277 4.875,6.645 
					4.561,6.418 4.248,6.645 4.368,6.277 4.054,6.052 4.442,6.052 				"/>
			</g>
			<g>
				<defs>
					<rect id="SVGID_51_" x="1" y="3" width="22" height="18"/>
				</defs>
				<clipPath id="SVGID_52_">
					<use xlink:href="#SVGID_51_"  overflow="visible"/>
				</clipPath>
				<polygon clip-path="url(#SVGID_52_)" fill="#FFFFFF" points="4.561,7.304 4.682,7.67 5.069,7.67 4.755,7.896 4.875,8.264 
					4.561,8.036 4.248,8.264 4.368,7.896 4.054,7.67 4.442,7.67 				"/>
			</g>
			<g>
				<defs>
					<rect id="SVGID_53_" x="1" y="3" width="22" height="18"/>
				</defs>
				<clipPath id="SVGID_54_">
					<use xlink:href="#SVGID_53_"  overflow="visible"/>
				</clipPath>
				<polygon clip-path="url(#SVGID_54_)" fill="#FFFFFF" points="4.561,8.922 4.682,9.288 5.069,9.288 4.755,9.516 4.875,9.881 
					4.561,9.654 4.248,9.881 4.368,9.516 4.054,9.288 4.442,9.288 				"/>
			</g>
			<g>
				<defs>
					<rect id="SVGID_55_" x="1" y="3" width="22" height="18"/>
				</defs>
				<clipPath id="SVGID_56_">
					<use xlink:href="#SVGID_55_"  overflow="visible"/>
				</clipPath>
				<polygon clip-path="url(#SVGID_56_)" fill="#FFFFFF" points="4.561,10.54 4.682,10.906 5.069,10.906 4.755,11.133 4.875,11.498 
					4.561,11.272 4.248,11.498 4.368,11.133 4.054,10.906 4.442,10.906 				"/>
			</g>
			<g>
				<defs>
					<rect id="SVGID_57_" x="1" y="3" width="22" height="18"/>
				</defs>
				<clipPath id="SVGID_58_">
					<use xlink:href="#SVGID_57_"  overflow="visible"/>
				</clipPath>
				<polygon clip-path="url(#SVGID_58_)" fill="#FFFFFF" points="5.696,4.921 5.815,5.287 6.203,5.287 5.89,5.514 6.01,5.879 
					5.696,5.653 5.382,5.879 5.501,5.514 5.188,5.287 5.576,5.287 				"/>
			</g>
			<g>
				<defs>
					<rect id="SVGID_59_" x="1" y="3" width="22" height="18"/>
				</defs>
				<clipPath id="SVGID_60_">
					<use xlink:href="#SVGID_59_"  overflow="visible"/>
				</clipPath>
				<polygon clip-path="url(#SVGID_60_)" fill="#FFFFFF" points="5.696,6.539 5.815,6.904 6.203,6.904 5.89,7.131 6.01,7.497 
					5.696,7.271 5.382,7.497 5.501,7.131 5.188,6.904 5.576,6.904 				"/>
			</g>
			<g>
				<defs>
					<rect id="SVGID_61_" x="1" y="3" width="22" height="18"/>
				</defs>
				<clipPath id="SVGID_62_">
					<use xlink:href="#SVGID_61_"  overflow="visible"/>
				</clipPath>
				<polygon clip-path="url(#SVGID_62_)" fill="#FFFFFF" points="5.696,8.156 5.815,8.521 6.203,8.521 5.89,8.749 6.01,9.115 
					5.696,8.889 5.382,9.115 5.501,8.749 5.188,8.521 5.576,8.521 				"/>
			</g>
			<g>
				<defs>
					<rect id="SVGID_63_" x="1" y="3" width="22" height="18"/>
				</defs>
				<clipPath id="SVGID_64_">
					<use xlink:href="#SVGID_63_"  overflow="visible"/>
				</clipPath>
				<polygon clip-path="url(#SVGID_64_)" fill="#FFFFFF" points="5.696,9.773 5.815,10.141 6.203,10.141 5.89,10.367 6.01,10.732 
					5.696,10.506 5.382,10.732 5.501,10.367 5.188,10.141 5.576,10.141 				"/>
			</g>
			<g>
				<defs>
					<rect id="SVGID_65_" x="1" y="3" width="22" height="18"/>
				</defs>
				<clipPath id="SVGID_66_">
					<use xlink:href="#SVGID_65_"  overflow="visible"/>
				</clipPath>
				<polygon clip-path="url(#SVGID_66_)" fill="#FFFFFF" points="6.844,4.068 6.964,4.436 7.352,4.436 7.038,4.661 7.158,5.027 
					6.844,4.801 6.531,5.027 6.65,4.661 6.338,4.436 6.725,4.436 				"/>
			</g>
			<g>
				<defs>
					<rect id="SVGID_67_" x="1" y="3" width="22" height="18"/>
				</defs>
				<clipPath id="SVGID_68_">
					<use xlink:href="#SVGID_67_"  overflow="visible"/>
				</clipPath>
				<polygon clip-path="url(#SVGID_68_)" fill="#FFFFFF" points="6.844,5.686 6.964,6.052 7.352,6.052 7.038,6.277 7.158,6.645 
					6.844,6.418 6.531,6.645 6.65,6.277 6.338,6.052 6.725,6.052 				"/>
			</g>
			<g>
				<defs>
					<rect id="SVGID_69_" x="1" y="3" width="22" height="18"/>
				</defs>
				<clipPath id="SVGID_70_">
					<use xlink:href="#SVGID_69_"  overflow="visible"/>
				</clipPath>
				<polygon clip-path="url(#SVGID_70_)" fill="#FFFFFF" points="6.844,7.304 6.964,7.67 7.352,7.67 7.038,7.896 7.158,8.264 
					6.844,8.036 6.531,8.264 6.65,7.896 6.338,7.67 6.725,7.67 				"/>
			</g>
			<g>
				<defs>
					<rect id="SVGID_71_" x="1" y="3" width="22" height="18"/>
				</defs>
				<clipPath id="SVGID_72_">
					<use xlink:href="#SVGID_71_"  overflow="visible"/>
				</clipPath>
				<polygon clip-path="url(#SVGID_72_)" fill="#FFFFFF" points="6.844,8.922 6.964,9.288 7.352,9.288 7.038,9.516 7.158,9.881 
					6.844,9.654 6.531,9.881 6.65,9.516 6.338,9.288 6.725,9.288 				"/>
			</g>
			<g>
				<defs>
					<rect id="SVGID_73_" x="1" y="3" width="22" height="18"/>
				</defs>
				<clipPath id="SVGID_74_">
					<use xlink:href="#SVGID_73_"  overflow="visible"/>
				</clipPath>
				<polygon clip-path="url(#SVGID_74_)" fill="#FFFFFF" points="6.844,10.54 6.964,10.906 7.352,10.906 7.038,11.133 7.158,11.498 
					6.844,11.272 6.531,11.498 6.65,11.133 6.338,10.906 6.725,10.906 				"/>
			</g>
			<g>
				<defs>
					<rect id="SVGID_75_" x="1" y="3" width="22" height="18"/>
				</defs>
				<clipPath id="SVGID_76_">
					<use xlink:href="#SVGID_75_"  overflow="visible"/>
				</clipPath>
				<polygon clip-path="url(#SVGID_76_)" fill="#FFFFFF" points="7.979,4.921 8.1,5.287 8.486,5.287 8.172,5.514 8.293,5.879 
					7.979,5.653 7.666,5.879 7.785,5.514 7.471,5.287 7.859,5.287 				"/>
			</g>
			<g>
				<defs>
					<rect id="SVGID_77_" x="1" y="3" width="22" height="18"/>
				</defs>
				<clipPath id="SVGID_78_">
					<use xlink:href="#SVGID_77_"  overflow="visible"/>
				</clipPath>
				<polygon clip-path="url(#SVGID_78_)" fill="#FFFFFF" points="7.979,6.539 8.1,6.904 8.486,6.904 8.172,7.131 8.293,7.497 
					7.979,7.271 7.666,7.497 7.785,7.131 7.471,6.904 7.859,6.904 				"/>
			</g>
			<g>
				<defs>
					<rect id="SVGID_79_" x="1" y="3" width="22" height="18"/>
				</defs>
				<clipPath id="SVGID_80_">
					<use xlink:href="#SVGID_79_"  overflow="visible"/>
				</clipPath>
				<polygon clip-path="url(#SVGID_80_)" fill="#FFFFFF" points="7.979,8.156 8.1,8.521 8.486,8.521 8.172,8.749 8.293,9.115 
					7.979,8.889 7.666,9.115 7.785,8.749 7.471,8.521 7.859,8.521 				"/>
			</g>
			<g>
				<defs>
					<rect id="SVGID_81_" x="1" y="3" width="22" height="18"/>
				</defs>
				<clipPath id="SVGID_82_">
					<use xlink:href="#SVGID_81_"  overflow="visible"/>
				</clipPath>
				<polygon clip-path="url(#SVGID_82_)" fill="#FFFFFF" points="7.979,9.773 8.1,10.141 8.486,10.141 8.172,10.367 8.293,10.732 
					7.979,10.506 7.666,10.732 7.785,10.367 7.471,10.141 7.859,10.141 				"/>
			</g>
			<g>
				<defs>
					<rect id="SVGID_83_" x="1" y="3" width="22" height="18"/>
				</defs>
				<clipPath id="SVGID_84_">
					<use xlink:href="#SVGID_83_"  overflow="visible"/>
				</clipPath>
				<polygon clip-path="url(#SVGID_84_)" fill="#FFFFFF" points="9.127,4.068 9.247,4.436 9.635,4.436 9.321,4.661 9.44,5.027 
					9.127,4.801 8.813,5.027 8.934,4.661 8.619,4.436 9.008,4.436 				"/>
			</g>
			<g>
				<defs>
					<rect id="SVGID_85_" x="1" y="3" width="22" height="18"/>
				</defs>
				<clipPath id="SVGID_86_">
					<use xlink:href="#SVGID_85_"  overflow="visible"/>
				</clipPath>
				<polygon clip-path="url(#SVGID_86_)" fill="#FFFFFF" points="9.127,5.686 9.247,6.052 9.635,6.052 9.321,6.277 9.44,6.645 
					9.127,6.418 8.813,6.645 8.934,6.277 8.619,6.052 9.008,6.052 				"/>
			</g>
			<g>
				<defs>
					<rect id="SVGID_87_" x="1" y="3" width="22" height="18"/>
				</defs>
				<clipPath id="SVGID_88_">
					<use xlink:href="#SVGID_87_"  overflow="visible"/>
				</clipPath>
				<polygon clip-path="url(#SVGID_88_)" fill="#FFFFFF" points="9.127,7.304 9.247,7.67 9.635,7.67 9.321,7.896 9.44,8.264 
					9.127,8.036 8.813,8.264 8.934,7.896 8.619,7.67 9.008,7.67 				"/>
			</g>
			<g>
				<defs>
					<rect id="SVGID_89_" x="1" y="3" width="22" height="18"/>
				</defs>
				<clipPath id="SVGID_90_">
					<use xlink:href="#SVGID_89_"  overflow="visible"/>
				</clipPath>
				<polygon clip-path="url(#SVGID_90_)" fill="#FFFFFF" points="9.127,8.922 9.247,9.288 9.635,9.288 9.321,9.516 9.44,9.881 
					9.127,9.654 8.813,9.881 8.934,9.516 8.619,9.288 9.008,9.288 				"/>
			</g>
			<g>
				<defs>
					<rect id="SVGID_91_" x="1" y="3" width="22" height="18"/>
				</defs>
				<clipPath id="SVGID_92_">
					<use xlink:href="#SVGID_91_"  overflow="visible"/>
				</clipPath>
				<polygon clip-path="url(#SVGID_92_)" fill="#FFFFFF" points="9.127,10.54 9.247,10.906 9.635,10.906 9.321,11.133 9.44,11.498 
					9.127,11.272 8.813,11.498 8.934,11.133 8.619,10.906 9.008,10.906 				"/>
			</g>
			<g>
				<defs>
					<rect id="SVGID_93_" x="1" y="3" width="22" height="18"/>
				</defs>
				<clipPath id="SVGID_94_">
					<use xlink:href="#SVGID_93_"  overflow="visible"/>
				</clipPath>
				<polygon clip-path="url(#SVGID_94_)" fill="#FFFFFF" points="10.262,4.921 10.381,5.287 10.769,5.287 10.455,5.514 
					10.575,5.879 10.262,5.653 9.947,5.879 10.068,5.514 9.754,5.287 10.142,5.287 				"/>
			</g>
			<g>
				<defs>
					<rect id="SVGID_95_" x="1" y="3" width="22" height="18"/>
				</defs>
				<clipPath id="SVGID_96_">
					<use xlink:href="#SVGID_95_"  overflow="visible"/>
				</clipPath>
				<polygon clip-path="url(#SVGID_96_)" fill="#FFFFFF" points="10.262,6.539 10.381,6.904 10.769,6.904 10.455,7.131 
					10.575,7.497 10.262,7.271 9.947,7.497 10.068,7.131 9.754,6.904 10.142,6.904 				"/>
			</g>
			<g>
				<defs>
					<rect id="SVGID_97_" x="1" y="3" width="22" height="18"/>
				</defs>
				<clipPath id="SVGID_98_">
					<use xlink:href="#SVGID_97_"  overflow="visible"/>
				</clipPath>
				<polygon clip-path="url(#SVGID_98_)" fill="#FFFFFF" points="10.262,8.156 10.381,8.521 10.769,8.521 10.455,8.749 
					10.575,9.115 10.262,8.889 9.947,9.115 10.068,8.749 9.754,8.521 10.142,8.521 				"/>
			</g>
			<g>
				<defs>
					<rect id="SVGID_99_" x="1" y="3" width="22" height="18"/>
				</defs>
				<clipPath id="SVGID_100_">
					<use xlink:href="#SVGID_99_"  overflow="visible"/>
				</clipPath>
				<polygon clip-path="url(#SVGID_100_)" fill="#FFFFFF" points="10.262,9.773 10.381,10.141 10.769,10.141 10.455,10.367 
					10.575,10.732 10.262,10.506 9.947,10.732 10.068,10.367 9.754,10.141 10.142,10.141 				"/>
			</g>
			<g>
				<defs>
					<rect id="SVGID_101_" x="1" y="3" width="22" height="18"/>
				</defs>
				<clipPath id="SVGID_102_">
					<use xlink:href="#SVGID_101_"  overflow="visible"/>
				</clipPath>
				<polygon clip-path="url(#SVGID_102_)" fill="#FFFFFF" points="11.41,4.068 11.529,4.436 11.918,4.436 11.604,4.661 
					11.724,5.027 11.41,4.801 11.096,5.027 11.216,4.661 10.902,4.436 11.29,4.436 				"/>
			</g>
			<g>
				<defs>
					<rect id="SVGID_103_" x="1" y="3" width="22" height="18"/>
				</defs>
				<clipPath id="SVGID_104_">
					<use xlink:href="#SVGID_103_"  overflow="visible"/>
				</clipPath>
				<polygon clip-path="url(#SVGID_104_)" fill="#FFFFFF" points="11.41,5.686 11.529,6.052 11.918,6.052 11.604,6.277 
					11.724,6.645 11.41,6.418 11.096,6.645 11.216,6.277 10.902,6.052 11.29,6.052 				"/>
			</g>
			<g>
				<defs>
					<rect id="SVGID_105_" x="1" y="3" width="22" height="18"/>
				</defs>
				<clipPath id="SVGID_106_">
					<use xlink:href="#SVGID_105_"  overflow="visible"/>
				</clipPath>
				<polygon clip-path="url(#SVGID_106_)" fill="#FFFFFF" points="11.41,7.304 11.529,7.67 11.918,7.67 11.604,7.896 11.724,8.264 
					11.41,8.036 11.096,8.264 11.216,7.896 10.902,7.67 11.29,7.67 				"/>
			</g>
			<g>
				<defs>
					<rect id="SVGID_107_" x="1" y="3" width="22" height="18"/>
				</defs>
				<clipPath id="SVGID_108_">
					<use xlink:href="#SVGID_107_"  overflow="visible"/>
				</clipPath>
				<polygon clip-path="url(#SVGID_108_)" fill="#FFFFFF" points="11.41,8.922 11.529,9.288 11.918,9.288 11.604,9.516 
					11.724,9.881 11.41,9.654 11.096,9.881 11.216,9.516 10.902,9.288 11.29,9.288 				"/>
			</g>
			<g>
				<defs>
					<rect id="SVGID_109_" x="1" y="3" width="22" height="18"/>
				</defs>
				<clipPath id="SVGID_110_">
					<use xlink:href="#SVGID_109_"  overflow="visible"/>
				</clipPath>
				<polygon clip-path="url(#SVGID_110_)" fill="#FFFFFF" points="11.41,10.54 11.529,10.906 11.918,10.906 11.604,11.133 
					11.724,11.498 11.41,11.272 11.096,11.498 11.216,11.133 10.902,10.906 11.29,10.906 				"/>
			</g>
			<g>
				<defs>
					<rect id="SVGID_111_" x="1" y="3" width="22" height="18"/>
				</defs>
				<clipPath id="SVGID_112_">
					<use xlink:href="#SVGID_111_"  overflow="visible"/>
				</clipPath>
				<polygon clip-path="url(#SVGID_112_)" fill="#FFFFFF" points="12.545,4.921 12.664,5.287 13.052,5.287 12.738,5.514 
					12.857,5.879 12.545,5.653 12.23,5.879 12.351,5.514 12.037,5.287 12.425,5.287 				"/>
			</g>
			<g>
				<defs>
					<rect id="SVGID_113_" x="1" y="3" width="22" height="18"/>
				</defs>
				<clipPath id="SVGID_114_">
					<use xlink:href="#SVGID_113_"  overflow="visible"/>
				</clipPath>
				<polygon clip-path="url(#SVGID_114_)" fill="#FFFFFF" points="12.545,6.539 12.664,6.904 13.052,6.904 12.738,7.131 
					12.857,7.497 12.545,7.271 12.23,7.497 12.351,7.131 12.037,6.904 12.425,6.904 				"/>
			</g>
			<g>
				<defs>
					<rect id="SVGID_115_" x="1" y="3" width="22" height="18"/>
				</defs>
				<clipPath id="SVGID_116_">
					<use xlink:href="#SVGID_115_"  overflow="visible"/>
				</clipPath>
				<polygon clip-path="url(#SVGID_116_)" fill="#FFFFFF" points="12.545,8.156 12.664,8.521 13.052,8.521 12.738,8.749 
					12.857,9.115 12.545,8.889 12.23,9.115 12.351,8.749 12.037,8.521 12.425,8.521 				"/>
			</g>
			<g>
				<defs>
					<rect id="SVGID_117_" x="1" y="3" width="22" height="18"/>
				</defs>
				<clipPath id="SVGID_118_">
					<use xlink:href="#SVGID_117_"  overflow="visible"/>
				</clipPath>
				<polygon clip-path="url(#SVGID_118_)" fill="#FFFFFF" points="12.545,9.773 12.664,10.141 13.052,10.141 12.738,10.367 
					12.857,10.732 12.545,10.506 12.23,10.732 12.351,10.367 12.037,10.141 12.425,10.141 				"/>
			</g>
			<g>
				<defs>
					<rect id="SVGID_119_" x="1" y="3" width="22" height="18"/>
				</defs>
				<clipPath id="SVGID_120_">
					<use xlink:href="#SVGID_119_"  overflow="visible"/>
				</clipPath>
				<polygon clip-path="url(#SVGID_120_)" fill="#FFFFFF" points="13.693,4.068 13.813,4.436 14.201,4.436 13.887,4.661 
					14.007,5.027 13.693,4.801 13.379,5.027 13.499,4.661 13.186,4.436 13.572,4.436 				"/>
			</g>
			<g>
				<defs>
					<rect id="SVGID_121_" x="1" y="3" width="22" height="18"/>
				</defs>
				<clipPath id="SVGID_122_">
					<use xlink:href="#SVGID_121_"  overflow="visible"/>
				</clipPath>
				<polygon clip-path="url(#SVGID_122_)" fill="#FFFFFF" points="13.693,5.686 13.813,6.052 14.201,6.052 13.887,6.277 
					14.007,6.645 13.693,6.418 13.379,6.645 13.499,6.277 13.186,6.052 13.572,6.052 				"/>
			</g>
			<g>
				<defs>
					<rect id="SVGID_123_" x="1" y="3" width="22" height="18"/>
				</defs>
				<clipPath id="SVGID_124_">
					<use xlink:href="#SVGID_123_"  overflow="visible"/>
				</clipPath>
				<polygon clip-path="url(#SVGID_124_)" fill="#FFFFFF" points="13.693,7.304 13.813,7.67 14.201,7.67 13.887,7.896 14.007,8.264 
					13.693,8.036 13.379,8.264 13.499,7.896 13.186,7.67 13.572,7.67 				"/>
			</g>
			<g>
				<defs>
					<rect id="SVGID_125_" x="1" y="3" width="22" height="18"/>
				</defs>
				<clipPath id="SVGID_126_">
					<use xlink:href="#SVGID_125_"  overflow="visible"/>
				</clipPath>
				<polygon clip-path="url(#SVGID_126_)" fill="#FFFFFF" points="13.693,8.922 13.813,9.288 14.201,9.288 13.887,9.516 
					14.007,9.881 13.693,9.654 13.379,9.881 13.499,9.516 13.186,9.288 13.572,9.288 				"/>
			</g>
			<g>
				<defs>
					<rect id="SVGID_127_" x="1" y="3" width="22" height="18"/>
				</defs>
				<clipPath id="SVGID_128_">
					<use xlink:href="#SVGID_127_"  overflow="visible"/>
				</clipPath>
				<polygon clip-path="url(#SVGID_128_)" fill="#FFFFFF" points="13.693,10.54 13.813,10.906 14.201,10.906 13.887,11.133 
					14.007,11.498 13.693,11.272 13.379,11.498 13.499,11.133 13.186,10.906 13.572,10.906 				"/>
			</g>
		</g>
	</g>
</g>
<g id="contour">
	<g opacity="0.35">
		<path d="M22.5,3.5v17h-21v-17H22.5 M23,3H1v18h22V3L23,3z"/>
	</g>
</g>
</svg>
